<svg width="900" height="150" viewBox="0 0 900 150" fill="none" xmlns="http://www.w3.org/2000/svg">
<g font-family="'Segoe UI', -apple-system, BlinkMacSystemFont, 'Helvetica Neue', Arial, sans-serif">
<text x="180" y="46" text-anchor="middle" font-size="30" font-weight="650" fill="#1f2328">364</text>
<text x="180" y="70" text-anchor="middle" font-size="10.5" font-weight="600" letter-spacing="1.6" fill="#6e7781">CONTRIBUTIONS · PAST YEAR</text>
<text x="360" y="46" text-anchor="middle" font-size="30" font-weight="650" fill="#1f2328">1</text>
<text x="360" y="70" text-anchor="middle" font-size="10.5" font-weight="600" letter-spacing="1.6" fill="#6e7781">STARS EARNED</text>
<text x="540" y="46" text-anchor="middle" font-size="30" font-weight="650" fill="#1f2328">36</text>
<text x="540" y="70" text-anchor="middle" font-size="10.5" font-weight="600" letter-spacing="1.6" fill="#6e7781">PUBLIC REPOS</text>
<text x="720" y="46" text-anchor="middle" font-size="30" font-weight="650" fill="#1f2328">2</text>
<text x="720" y="70" text-anchor="middle" font-size="10.5" font-weight="600" letter-spacing="1.6" fill="#6e7781">FOLLOWERS</text>
<clipPath id="bar"><rect x="40" y="92" width="820" height="8" rx="4"/></clipPath>
<rect x="40.0" y="92" width="455.3" height="8" fill="#3572A5" clip-path="url(#bar)"/>
<rect x="495.3" y="92" width="325.2" height="8" fill="#f1e05a" clip-path="url(#bar)"/>
<rect x="820.5" y="92" width="15.3" height="8" fill="#663399" clip-path="url(#bar)"/>
<rect x="835.8" y="92" width="12.1" height="8" fill="#b07219" clip-path="url(#bar)"/>
<rect x="847.9" y="92" width="9.3" height="8" fill="#00ADD8" clip-path="url(#bar)"/>
<rect x="857.2" y="92" width="2.8" height="8" fill="#6e7781" opacity="0.25" clip-path="url(#bar)"/>
<circle cx="108.0" cy="126" r="4.5" fill="#3572A5"/>
<text x="150" y="130" text-anchor="middle" font-size="12" fill="#6e7781">Python 56%</text>
<circle cx="245.2" cy="126" r="4.5" fill="#f1e05a"/>
<text x="300" y="130" text-anchor="middle" font-size="12" fill="#6e7781">JavaScript 40%</text>
<circle cx="420.8" cy="126" r="4.5" fill="#663399"/>
<text x="450" y="130" text-anchor="middle" font-size="12" fill="#6e7781">CSS 2%</text>
<circle cx="567.6" cy="126" r="4.5" fill="#b07219"/>
<text x="600" y="130" text-anchor="middle" font-size="12" fill="#6e7781">Java 1%</text>
<circle cx="724.0" cy="126" r="4.5" fill="#00ADD8"/>
<text x="750" y="130" text-anchor="middle" font-size="12" fill="#6e7781">Go 1%</text>
</g></svg>
